<svg width="15" height="9" viewBox="0 0 15 9" fill="none" xmlns="http://www.w3.org/2000/svg">
<path d="M5.97576 6.41574C6.00067 6.41676 6.02605 6.41223 6.05028 6.40246C6.07451 6.39268 6.09705 6.37787 6.11649 6.35896C6.13592 6.34006 6.15181 6.31747 6.16314 6.29264C6.17447 6.26781 6.181 6.24129 6.1823 6.21477C6.18361 6.18824 6.17967 6.1623 6.17072 6.13858C6.16178 6.11487 6.14803 6.09391 6.13036 6.07703C6.11269 6.06016 6.09148 6.04775 6.06809 6.04058C6.04469 6.03342 6.01962 6.03167 5.99448 6.03543L4.15538 6.13517L7.35098 2.7618C7.38383 2.72364 7.4028 2.67509 7.40398 2.62615C7.40516 2.57721 7.38847 2.53161 7.35733 2.49875C7.3262 2.46588 7.283 2.44826 7.23664 2.44951C7.19028 2.45075 7.14429 2.47078 7.10814 2.50545L3.91255 5.87882L4.00957 3.9369C4.01094 3.88689 3.99396 3.84025 3.96215 3.80668C3.93035 3.7731 3.88617 3.75518 3.8388 3.75662C3.81513 3.75788 3.79145 3.76406 3.76911 3.7748C3.74677 3.78554 3.72621 3.80064 3.7086 3.81922C3.691 3.8378 3.6767 3.85951 3.66652 3.88309C3.65635 3.90668 3.65049 3.93168 3.6493 3.95666L3.531 6.3602C3.52931 6.38532 3.53243 6.41003 3.54017 6.43282C3.54792 6.45562 3.56013 6.47605 3.57607 6.49288C3.59202 6.5097 3.61137 6.5226 3.63297 6.5308C3.65456 6.539 3.67796 6.5423 3.70177 6.5405L5.97576 6.41574Z" fill="white" stroke="white" stroke-width="0.8" stroke-linecap="round" stroke-linejoin="round"/>
</svg>
