<svg width="15" height="9" viewBox="0 0 15 9" fill="none" xmlns="http://www.w3.org/2000/svg">
<path fill-rule="evenodd" clip-rule="evenodd" d="M1.79983 0H9.14163C10.1356 0 10.9415 0.78815 10.9415 1.76039V7.2396C10.9415 8.2118 10.1356 9 9.14163 9H1.79983C0.80581 9 0 8.2118 0 7.2396V1.76039C0 0.78815 0.80581 0 1.79983 0ZM6.05028 6.40246C6.02605 6.41223 6.00067 6.41676 5.97576 6.41574L3.70177 6.5405C3.67796 6.5423 3.65456 6.539 3.63297 6.5308C3.61137 6.5226 3.59202 6.5097 3.57607 6.49288C3.56013 6.47605 3.54792 6.45562 3.54017 6.43282C3.53243 6.41003 3.52931 6.38532 3.531 6.3602L3.6493 3.95666C3.65049 3.93168 3.65635 3.90668 3.66652 3.88309C3.6767 3.85951 3.691 3.8378 3.7086 3.81922C3.72621 3.80064 3.74677 3.78554 3.76911 3.7748C3.79145 3.76406 3.81513 3.75788 3.8388 3.75662C3.88617 3.75518 3.93035 3.7731 3.96215 3.80668C3.99396 3.84025 4.01094 3.88689 4.00957 3.9369L3.91255 5.87882L7.10814 2.50545C7.14429 2.47078 7.19028 2.45075 7.23664 2.44951C7.283 2.44826 7.3262 2.46588 7.35733 2.49875C7.38847 2.53161 7.40516 2.57721 7.40398 2.62615C7.4028 2.67509 7.38383 2.72364 7.35098 2.7618L4.15538 6.13517L5.99448 6.03543C6.01962 6.03167 6.04469 6.03342 6.06809 6.04058C6.09148 6.04775 6.11269 6.06016 6.13036 6.07703C6.14803 6.09391 6.16178 6.11487 6.17072 6.13858C6.17967 6.1623 6.18361 6.18824 6.1823 6.21477C6.181 6.24129 6.17447 6.26781 6.16314 6.29264C6.15181 6.31747 6.13592 6.34006 6.11649 6.35896C6.09705 6.37787 6.07451 6.39268 6.05028 6.40246Z" fill="black"/>
<path d="M13.9577 0.611249L11.8174 1.81566V7.1849L13.9592 8.3893C14.5306 8.7105 15.0001 8.4465 15.0001 7.8025V1.20099C14.9986 0.554039 14.5306 0.289979 13.9577 0.611249Z" fill="black"/>
</svg>
