<svg width="16" height="16" viewBox="0 0 16 16" fill="none" xmlns="http://www.w3.org/2000/svg">
<path d="M11.4415 5.26039C11.4415 4.28815 10.6356 3.5 9.64163 3.5H2.29983C1.30581 3.5 0.5 4.28815 0.5 5.26039V10.7396C0.5 11.7118 1.30581 12.5 2.29983 12.5H9.64163C10.6356 12.5 11.4415 11.7118 11.4415 10.7396V5.26039ZM4.20176 10.0405C4.17795 10.0423 4.15455 10.039 4.13296 10.0308C4.11136 10.0226 4.09201 10.0097 4.07606 9.99288C4.06012 9.97605 4.04791 9.95562 4.04016 9.93282C4.03242 9.91003 4.0293 9.88532 4.03099 9.8602L4.14929 7.45666C4.15048 7.43168 4.15634 7.40668 4.16651 7.38309C4.17669 7.35951 4.19099 7.3378 4.20859 7.31922C4.2262 7.30064 4.24676 7.28554 4.2691 7.2748C4.29144 7.26406 4.31512 7.25788 4.33879 7.25662C4.38616 7.25518 4.43034 7.2731 4.46214 7.30668C4.49395 7.34025 4.51093 7.38689 4.50956 7.4369L4.41254 9.37882L7.60813 6.00545C7.64428 5.97078 7.69027 5.95075 7.73663 5.94951C7.78299 5.94826 7.82619 5.96588 7.85732 5.99875C7.88846 6.03161 7.90515 6.07721 7.90397 6.12615C7.90279 6.17509 7.88382 6.22364 7.85097 6.2618L4.65537 9.63517L6.49447 9.53543C6.51961 9.53167 6.54468 9.53342 6.56808 9.54058C6.59147 9.54775 6.61268 9.56016 6.63035 9.57703C6.64802 9.59391 6.66177 9.61487 6.67071 9.63858C6.67966 9.6623 6.6836 9.68824 6.68229 9.71477C6.68099 9.74129 6.67446 9.76781 6.66313 9.79264C6.6518 9.81747 6.63591 9.84006 6.61648 9.85896C6.59704 9.87787 6.5745 9.89268 6.55027 9.90246C6.52604 9.91223 6.50066 9.91676 6.47575 9.91574L4.20176 10.0405Z" fill="#B2B2B2"/>
<path d="M14.4577 4.11125L12.3174 5.31566V10.6849L14.4592 11.8893C15.0306 12.2105 15.5001 11.9465 15.5001 11.3025V4.70099C15.4986 4.05404 15.0306 3.78998 14.4577 4.11125Z" fill="#B2B2B2"/>
</svg>
