<svg width="16" height="16" viewBox="0 0 16 16" fill="none" xmlns="http://www.w3.org/2000/svg">
<path d="M12.683 11.611L11.265 10.157C11.052 9.939 10.725 9.859 10.431 9.953C10.358 9.976 10.289 10.009 10.225 10.052L9.322 10.617C9.14 10.544 8.524 10.217 7.14 8.797C5.747 7.37 5.45 6.762 5.389 6.585L6.029 5.748C6.272 5.45 6.252 5.018 5.982 4.741L4.563 3.286C4.343 3.061 4.003 2.976 3.696 3.074C3.544 3.123 3.411 3.212 3.31 3.334L2.919 3.802C2.567 4.205 2.393 4.704 2.4 5.284C2.406 5.794 2.554 6.37 2.839 6.997C3.319 8.05 4.206 9.27 5.34 10.432C6.32 11.438 7.386 12.293 8.339 12.839C9.553 13.536 10.59 13.756 11.42 13.492C11.648 13.419 11.861 13.309 12.053 13.164L12.56 12.816C12.755 12.682 12.882 12.472 12.906 12.241C12.929 12.01 12.848 11.781 12.683 11.611Z" fill="#B2B2B2"/>
<path d="M11.155 7.162C11.18 7.163 11.204 7.16 11.227 7.152C11.25 7.142 11.272 7.13 11.29 7.112C11.309 7.096 11.323 7.075 11.334 7.052C11.344 7.03 11.35 7.006 11.351 6.982C11.351 6.957 11.347 6.933 11.338 6.912C11.328 6.889 11.315 6.87 11.298 6.854C11.28 6.838 11.259 6.826 11.237 6.819C11.214 6.812 11.19 6.809 11.165 6.812L9.392 6.862L12.406 3.832C12.436 3.798 12.454 3.754 12.454 3.709C12.454 3.664 12.437 3.622 12.406 3.591C12.376 3.561 12.333 3.543 12.289 3.543C12.244 3.543 12.199 3.561 12.166 3.592L9.152 6.622L9.204 4.838C9.204 4.792 9.187 4.748 9.156 4.718C9.124 4.686 9.081 4.668 9.036 4.668C9.013 4.668 8.99 4.674 8.969 4.683C8.947 4.693 8.928 4.706 8.911 4.723C8.895 4.74 8.881 4.759 8.871 4.781C8.863 4.802 8.857 4.825 8.857 4.848L8.794 7.055C8.793 7.079 8.796 7.101 8.804 7.122C8.812 7.144 8.824 7.162 8.84 7.178C8.856 7.194 8.875 7.207 8.896 7.215C8.916 7.223 8.94 7.226 8.962 7.225L11.155 7.162V7.162Z" fill="#B2B2B2" stroke="#B2B2B2" stroke-width="0.1" stroke-linecap="round" stroke-linejoin="round"/>
</svg>
