<svg width="16" height="16" viewBox="0 0 16 16" fill="none" xmlns="http://www.w3.org/2000/svg">
<path d="M9.64163 3.5H2.29983C1.30581 3.5 0.5 4.28815 0.5 5.26039V10.7396C0.5 11.7118 1.30581 12.5 2.29983 12.5H9.64163C10.6356 12.5 11.4415 11.7118 11.4415 10.7396V5.26039C11.4415 4.28815 10.6356 3.5 9.64163 3.5Z" fill="#B2B2B2"/>
<path d="M6.47576 9.91574C6.50067 9.91676 6.52605 9.91223 6.55028 9.90246C6.57451 9.89268 6.59705 9.87787 6.61649 9.85896C6.63592 9.84006 6.65181 9.81747 6.66314 9.79264C6.67447 9.76781 6.681 9.74129 6.6823 9.71477C6.68361 9.68824 6.67967 9.6623 6.67072 9.63858C6.66178 9.61487 6.64803 9.59391 6.63036 9.57703C6.61269 9.56016 6.59148 9.54775 6.56809 9.54058C6.54469 9.53342 6.51962 9.53167 6.49448 9.53543L4.65538 9.63517L7.85098 6.2618C7.88383 6.22364 7.9028 6.17509 7.90398 6.12615C7.90516 6.07721 7.88847 6.03161 7.85733 5.99875C7.8262 5.96588 7.783 5.94826 7.73664 5.94951C7.69028 5.95075 7.64429 5.97078 7.60814 6.00545L4.41255 9.37882L4.50957 7.4369C4.51094 7.38689 4.49396 7.34025 4.46215 7.30668C4.43035 7.2731 4.38617 7.25518 4.3388 7.25662C4.31513 7.25788 4.29145 7.26406 4.26911 7.2748C4.24677 7.28554 4.22621 7.30064 4.2086 7.31922C4.191 7.3378 4.1767 7.35951 4.16652 7.38309C4.15635 7.40668 4.15049 7.43168 4.1493 7.45666L4.031 9.8602C4.02931 9.88532 4.03243 9.91003 4.04017 9.93282C4.04792 9.95562 4.06013 9.97605 4.07607 9.99288C4.09202 10.0097 4.11137 10.0226 4.13297 10.0308C4.15456 10.039 4.17796 10.0423 4.20177 10.0405L6.47576 9.91574Z" fill="white" stroke="white" stroke-width="0.8" stroke-linecap="round" stroke-linejoin="round"/>
<path d="M14.4577 4.11125L12.3174 5.31566V10.6849L14.4592 11.8893C15.0306 12.2105 15.5001 11.9465 15.5001 11.3025V4.70099C15.4986 4.05404 15.0306 3.78998 14.4577 4.11125Z" fill="#B2B2B2"/>
</svg>
