<svg width="21" height="20" viewBox="0 0 21 20" fill="none" xmlns="http://www.w3.org/2000/svg">
<g clip-path="url(#clip0)">
<path fill-rule="evenodd" clip-rule="evenodd" d="M15.8444 16.8444C14.2719 18.1884 12.2307 19 10 19C5.02944 19 1 14.9706 1 10C1 5.02944 5.02944 1 10 1C14.9706 1 19 5.02944 19 10C19 12.019 18.3352 13.8827 17.2126 15.3841L19.7071 17.8787C20.0976 18.2692 20.0976 18.9024 19.7071 19.2929C19.3166 19.6834 18.6834 19.6834 18.2929 19.2929L15.8444 16.8444ZM2.8 10C2.8 13.9764 6.02355 17.2 10 17.2C13.9764 17.2 17.2 13.9764 17.2 10C17.2 6.02355 13.9764 2.8 10 2.8C6.02355 2.8 2.8 6.02355 2.8 10Z" fill="black"/>
</g>
<defs>
<clipPath id="clip0">
<rect width="21" height="20" fill="white"/>
</clipPath>
</defs>
</svg>
