<svg width="16" height="16" viewBox="0 0 16 16" fill="none" xmlns="http://www.w3.org/2000/svg">
<path d="M9.64163 3.5H2.29983C1.30581 3.5 0.5 4.28815 0.5 5.26039V10.7396C0.5 11.7118 1.30581 12.5 2.29983 12.5H9.64163C10.6356 12.5 11.4415 11.7118 11.4415 10.7396V5.26039C11.4415 4.28815 10.6356 3.5 9.64163 3.5Z" fill="#F44336"/>
<path d="M8.4499 6.51224C8.36187 6.60027 8.27323 6.68891 8.1852 6.77694C7.97491 6.98723 7.76461 7.19752 7.55432 7.40782C7.30001 7.66212 7.04571 7.91643 6.7914 8.17074C6.57071 8.39142 6.34942 8.61272 6.12873 8.83341C6.02236 8.93978 5.91416 9.04492 5.80901 9.15312C5.80779 9.15435 5.80596 9.15618 5.80473 9.1574C5.949 9.1574 6.09266 9.1574 6.23693 9.1574C6.14646 9.06693 6.05599 8.97645 5.96551 8.88598C5.74849 8.66896 5.53086 8.45133 5.31385 8.23432C5.05098 7.97145 4.78812 7.70858 4.52525 7.44572C4.29784 7.21831 4.07043 6.9909 3.84302 6.76349C3.73237 6.65284 3.62295 6.54097 3.51108 6.43155C3.50924 6.42971 3.50802 6.42849 3.50619 6.42665C3.45056 6.37102 3.36864 6.3374 3.28978 6.3374C3.21459 6.3374 3.12534 6.37041 3.07337 6.42665C3.02019 6.48473 2.98045 6.56114 2.98412 6.64306C2.98779 6.72437 3.0153 6.80078 3.07337 6.85947C3.16385 6.94994 3.25432 7.04042 3.3448 7.13089C3.56182 7.34791 3.77944 7.56554 3.99646 7.78255C4.25933 8.04542 4.52219 8.30829 4.78506 8.57115C5.01247 8.79856 5.23988 9.02597 5.46729 9.25338C5.57794 9.36403 5.68736 9.4759 5.79923 9.58533C5.80107 9.58716 5.80229 9.58838 5.80412 9.59022C5.92088 9.70698 6.11956 9.70698 6.23632 9.59022C6.32435 9.50219 6.41299 9.41354 6.50102 9.32552C6.71132 9.11522 6.92161 8.90493 7.1319 8.69464C7.38621 8.44033 7.64052 8.18602 7.89482 7.93171C8.11551 7.71103 8.33681 7.48973 8.55749 7.26905C8.66386 7.16268 8.77206 7.05692 8.87721 6.94933C8.87843 6.94811 8.88027 6.94627 8.88149 6.94505C8.93712 6.88942 8.97074 6.8075 8.97074 6.72864C8.97074 6.65345 8.93773 6.5642 8.88149 6.51224C8.82341 6.45905 8.747 6.41932 8.66508 6.42299C8.585 6.42604 8.50859 6.45355 8.4499 6.51224Z" fill="white" stroke="white" stroke-width="0.7" stroke-linecap="round" stroke-linejoin="round"/>
<path d="M3.58195 8.97892C3.58195 8.87928 3.58195 8.77902 3.58195 8.67938C3.58195 8.46603 3.58195 8.25207 3.58195 8.03872C3.58195 7.83698 3.58195 7.63464 3.58195 7.4329C3.58195 7.35404 3.58195 7.2758 3.58195 7.19694C3.58195 7.01232 3.58195 6.8277 3.58195 6.64369C3.58195 6.6388 3.58195 6.63391 3.58195 6.62841C3.47986 6.7305 3.37838 6.83198 3.27629 6.93407C3.44807 6.93407 3.61985 6.93407 3.79163 6.93407C3.86988 6.93407 3.94874 6.93407 4.02699 6.93407C4.21833 6.93407 4.41028 6.93407 4.60163 6.93407C4.82048 6.93407 5.03933 6.93407 5.25879 6.93407C5.37983 6.93407 5.50087 6.93529 5.62191 6.93407C5.62375 6.93407 5.62558 6.93407 5.62741 6.93407C5.70566 6.93407 5.78819 6.89984 5.84382 6.84482C5.89701 6.79163 5.93674 6.70483 5.93307 6.62841C5.92941 6.54955 5.90373 6.46764 5.84382 6.41201C5.78391 6.35699 5.71055 6.32275 5.62741 6.32275C5.52777 6.32275 5.42751 6.32275 5.32787 6.32275C5.11452 6.32275 4.90056 6.32275 4.68721 6.32275C4.48548 6.32275 4.28313 6.32275 4.0814 6.32275C4.00254 6.32275 3.92429 6.32275 3.84543 6.32275C3.66081 6.32275 3.47619 6.32275 3.29219 6.32275C3.2873 6.32275 3.28241 6.32275 3.2769 6.32275C3.11185 6.32275 2.97125 6.46275 2.97125 6.62841C2.97125 6.80019 2.97125 6.97197 2.97125 7.14375C2.97125 7.222 2.97125 7.30086 2.97125 7.37911C2.97125 7.57045 2.97125 7.7624 2.97125 7.95375C2.97125 8.1726 2.97125 8.39145 2.97125 8.6103C2.97125 8.73134 2.97002 8.85238 2.97125 8.97342C2.97125 8.97525 2.97125 8.97709 2.97125 8.97892C2.97125 9.05717 3.00548 9.1397 3.0605 9.19533C3.11368 9.24851 3.20049 9.28825 3.2769 9.28458C3.35576 9.28091 3.43768 9.25524 3.49331 9.19533C3.54772 9.13542 3.58195 9.06145 3.58195 8.97892Z" fill="white" stroke="white" stroke-width="0.7" stroke-linecap="round" stroke-linejoin="round"/>
<path d="M14.4577 4.11125L12.3174 5.31566V10.6849L14.4592 11.8893C15.0306 12.2105 15.5001 11.9465 15.5001 11.3025V4.70099C15.4986 4.05404 15.0306 3.78998 14.4577 4.11125Z" fill="#F44336"/>
</svg>
