<svg width="20" height="19" viewBox="0 0 20 19" fill="none" xmlns="http://www.w3.org/2000/svg">
<path d="M15.825 11.664L13.793 11.654C13.489 11.653 13.204 11.473 13.067 11.196C13.033 11.128 13.009 11.055 12.996 10.98L12.776 9.937C12.596 9.857 11.932 9.641 9.95 9.632C7.956 9.622 7.313 9.83 7.142 9.909L6.985 10.95C6.939 11.332 6.615 11.618 6.228 11.617L4.196 11.607C3.88 11.605 3.584 11.418 3.441 11.13C3.371 10.987 3.342 10.83 3.359 10.673L3.424 10.066C3.47 9.532 3.708 9.06 4.13 8.662C4.502 8.312 5.019 8.019 5.667 7.788C6.757 7.402 8.252 7.193 9.876 7.201C11.281 7.208 12.636 7.38 13.691 7.686C15.036 8.076 15.914 8.669 16.301 9.449C16.407 9.664 16.475 9.894 16.504 10.133L16.606 10.739C16.645 10.973 16.582 11.209 16.432 11.387C16.282 11.564 16.062 11.665 15.825 11.664Z" fill="#F44336"/>
<path d="M12.479 3.19L12.214 3.454L11.584 4.085L10.82 4.848L10.158 5.511C10.051 5.617 9.943 5.722 9.838 5.831L9.834 5.835H10.266L9.994 5.563L9.343 4.912L8.554 4.123L7.872 3.441C7.762 3.331 7.652 3.218 7.54 3.109L7.535 3.104C7.479 3.049 7.397 3.014 7.319 3.014C7.243 3.014 7.154 3.048 7.102 3.104C7.049 3.162 7.009 3.239 7.012 3.321C7.017 3.401 7.044 3.478 7.102 3.537L7.374 3.808L8.025 4.46L8.814 5.249L9.496 5.931C9.606 6.041 9.716 6.153 9.828 6.263L9.833 6.268C9.95 6.384 10.148 6.384 10.265 6.268L10.53 6.003L11.16 5.373L11.924 4.609L12.586 3.947C12.693 3.84 12.801 3.734 12.906 3.627L12.91 3.623C12.966 3.567 13 3.485 13 3.406C13 3.331 12.966 3.242 12.91 3.19C12.852 3.137 12.776 3.097 12.694 3.1C12.614 3.104 12.537 3.131 12.479 3.19V3.19Z" fill="#F44336" stroke="#F44336" stroke-width="0.1" stroke-linecap="round" stroke-linejoin="round"/>
<path d="M7.61 5.656V5.356V4.716V4.11V3.874V3.321V3.306L7.305 3.612H9.656C9.734 3.612 9.817 3.577 9.873 3.522C9.926 3.469 9.966 3.382 9.962 3.306C9.958 3.227 9.932 3.146 9.872 3.09C9.812 3.034 9.739 3 9.656 3H7.306C7.14 3 7 3.14 7 3.306V5.656C7 5.735 7.034 5.817 7.09 5.873C7.142 5.926 7.23 5.966 7.306 5.963C7.385 5.958 7.466 5.933 7.522 5.873C7.577 5.813 7.611 5.739 7.611 5.656H7.61Z" fill="#F44336" stroke="#F44336" stroke-width="0.1" stroke-linecap="round" stroke-linejoin="round"/>
</svg>
