<svg width="16" height="16" viewBox="0 0 16 16" fill="none" xmlns="http://www.w3.org/2000/svg">
<path d="M2.29983 3.5H9.64163C10.6356 3.5 11.4415 4.28815 11.4415 5.26039V10.7396C11.4415 11.7118 10.6356 12.5 9.64163 12.5H2.29983C1.30581 12.5 0.5 11.7118 0.5 10.7396V5.26039C0.5 4.28815 1.30581 3.5 2.29983 3.5ZM3.58195 8.97892V8.67938V8.03872V7.4329V7.36804L3.99646 7.78255L4.78506 8.57115L5.46729 9.25338C5.50423 9.29031 5.54102 9.32738 5.57782 9.36445C5.65126 9.43844 5.7247 9.51243 5.79923 9.58533L5.80412 9.59022C5.92088 9.70698 6.11956 9.70698 6.23632 9.59022L6.50102 9.32552L7.1319 8.69464L7.89482 7.93171L8.55749 7.26905C8.5929 7.23364 8.62851 7.1983 8.66414 7.16294L8.66421 7.16287L8.66424 7.16285C8.73562 7.09201 8.80709 7.02108 8.87721 6.94933L8.88149 6.94505C8.93712 6.88942 8.97074 6.8075 8.97074 6.72864C8.97074 6.65345 8.93773 6.5642 8.88149 6.51224C8.82341 6.45905 8.747 6.41932 8.66508 6.42299C8.585 6.42604 8.50859 6.45355 8.4499 6.51224L8.1852 6.77694L7.55432 7.40782L6.7914 8.17074L6.12873 8.83341C6.09326 8.86888 6.05758 8.90422 6.02188 8.93958L6.02049 8.94096L5.96551 8.88598L5.31385 8.23432L4.52525 7.44572L4.0136 6.93407H4.02699H4.60163H5.25879L5.37983 6.93434H5.37994C5.46059 6.93461 5.54125 6.93488 5.62191 6.93407H5.62741C5.70566 6.93407 5.78819 6.89984 5.84382 6.84482C5.89701 6.79163 5.93674 6.70483 5.93307 6.62841C5.92941 6.54955 5.90373 6.46764 5.84382 6.41201C5.78391 6.35699 5.71055 6.32275 5.62741 6.32275H5.32787H4.68721H4.0814H3.84543H3.29219H3.2769C3.11185 6.32275 2.97125 6.46275 2.97125 6.62841V7.14375V7.37911V7.95375V8.6103L2.97098 8.73134V8.73139C2.9707 8.81207 2.97043 8.89274 2.97125 8.97342V8.97892C2.97125 9.05717 3.00548 9.1397 3.0605 9.19533C3.11368 9.24851 3.20049 9.28825 3.2769 9.28458C3.35576 9.28091 3.43768 9.25524 3.49331 9.19533C3.54772 9.13542 3.58195 9.06145 3.58195 8.97892Z" fill="#F44336"/>
<path d="M14.4577 4.11125L12.3174 5.31566V10.6849L14.4592 11.8893C15.0306 12.2105 15.5001 11.9465 15.5001 11.3025V4.70099C15.4986 4.05404 15.0306 3.78998 14.4577 4.11125Z" fill="#F44336"/>
</svg>
