<svg width="16" height="16" viewBox="0 0 16 16" fill="none" xmlns="http://www.w3.org/2000/svg">
<path d="M12.683 11.611L11.265 10.157C11.052 9.939 10.725 9.859 10.431 9.953C10.358 9.976 10.289 10.009 10.225 10.052L9.322 10.617C9.14 10.544 8.524 10.217 7.14 8.797C5.747 7.37 5.45 6.762 5.389 6.585L6.029 5.748C6.272 5.45 6.252 5.018 5.982 4.741L4.563 3.286C4.343 3.061 4.003 2.976 3.696 3.074C3.544 3.123 3.411 3.212 3.31 3.334L2.919 3.802C2.567 4.205 2.393 4.704 2.4 5.284C2.406 5.794 2.554 6.37 2.839 6.997C3.319 8.05 4.206 9.27 5.34 10.432C6.32 11.438 7.386 12.293 8.339 12.839C9.553 13.536 10.59 13.756 11.42 13.492C11.648 13.419 11.861 13.309 12.053 13.164L12.56 12.816C12.755 12.682 12.882 12.472 12.906 12.241C12.929 12.01 12.848 11.781 12.683 11.611Z" fill="#B2B2B2"/>
<path d="M10.099 3.616C10.075 3.614 10.05 3.618 10.027 3.626C10.004 3.635 9.983 3.648 9.964 3.665C9.946 3.682 9.931 3.702 9.921 3.725C9.911 3.747 9.905 3.771 9.904 3.795C9.904 3.82 9.907 3.845 9.917 3.866C9.926 3.888 9.939 3.908 9.957 3.924C9.974 3.94 9.995 3.951 10.017 3.959C10.041 3.966 10.065 3.968 10.089 3.965L11.863 3.915L8.849 6.945C8.818 6.979 8.801 7.023 8.801 7.068C8.801 7.113 8.818 7.155 8.848 7.186C8.879 7.217 8.921 7.234 8.966 7.234C9.011 7.234 9.055 7.217 9.089 7.186L12.102 4.156L12.05 5.939C12.05 5.985 12.067 6.029 12.099 6.06C12.13 6.092 12.173 6.11 12.219 6.11C12.242 6.108 12.264 6.103 12.286 6.094C12.307 6.084 12.326 6.071 12.343 6.054C12.36 6.038 12.373 6.018 12.383 5.997C12.392 5.975 12.397 5.952 12.398 5.929L12.461 3.722C12.461 3.699 12.458 3.676 12.451 3.655C12.442 3.634 12.43 3.615 12.414 3.599C12.399 3.583 12.38 3.571 12.358 3.563C12.338 3.555 12.315 3.551 12.292 3.553L10.099 3.616V3.616Z" fill="#B2B2B2" stroke="#B2B2B2" stroke-width="0.1" stroke-linecap="round" stroke-linejoin="round"/>
</svg>
