<svg width="16" height="16" viewBox="0 0 16 16" fill="none" xmlns="http://www.w3.org/2000/svg">
<path fill-rule="evenodd" clip-rule="evenodd" d="M2.29983 3.5H9.64163C10.6356 3.5 11.4415 4.28815 11.4415 5.26039V10.7396C11.4415 11.7118 10.6356 12.5 9.64163 12.5H2.29983C1.30581 12.5 0.5 11.7118 0.5 10.7396V5.26039C0.5 4.28815 1.30581 3.5 2.29983 3.5ZM5.39112 6.09754C5.36689 6.10732 5.34434 6.12213 5.32491 6.14104C5.30548 6.15994 5.28959 6.18253 5.27826 6.20736C5.26692 6.23219 5.2604 6.25871 5.25909 6.28523C5.25779 6.31176 5.26173 6.3377 5.27067 6.36142C5.27962 6.38513 5.29336 6.40609 5.31103 6.42297C5.3287 6.43984 5.34991 6.45225 5.37331 6.45942C5.3967 6.46658 5.42177 6.46833 5.44691 6.46457L7.28601 6.36483L4.09041 9.7382C4.05757 9.77636 4.0386 9.82491 4.03741 9.87385C4.03623 9.92279 4.05293 9.96839 4.08406 10.0013C4.11519 10.0341 4.15839 10.0517 4.20475 10.0505C4.25111 10.0492 4.29711 10.0292 4.33325 9.99455L7.52885 6.62118L7.43183 8.5631C7.43046 8.61311 7.44744 8.65975 7.47924 8.69332C7.51105 8.7269 7.55523 8.74482 7.6026 8.74338C7.62627 8.74212 7.64995 8.73594 7.67229 8.7252C7.69463 8.71446 7.71519 8.69936 7.73279 8.68078C7.7504 8.6622 7.7647 8.64049 7.77487 8.61691C7.78505 8.59332 7.7909 8.56832 7.79209 8.54334L7.9104 6.1398C7.91209 6.11468 7.90897 6.08997 7.90122 6.06718C7.89348 6.04438 7.88127 6.02395 7.86532 6.00712C7.84938 5.99029 7.83003 5.9774 7.80843 5.96922C7.78683 5.96104 7.76343 5.95775 7.73963 5.95953L5.46563 6.08426C5.44073 6.08324 5.41535 6.08777 5.39112 6.09754Z" fill="#B2B2B2"/>
<path d="M14.4577 4.11125L12.3174 5.31566V10.6849L14.4592 11.8893C15.0306 12.2105 15.5001 11.9465 15.5001 11.3025V4.70099C15.4986 4.05404 15.0306 3.78998 14.4577 4.11125Z" fill="#B2B2B2"/>
</svg>
