<svg width="16" height="16" viewBox="0 0 16 16" fill="none" xmlns="http://www.w3.org/2000/svg">
<path d="M9.64163 3.5H2.29983C1.30581 3.5 0.5 4.28815 0.5 5.26039V10.7396C0.5 11.7118 1.30581 12.5 2.29983 12.5H9.64163C10.6356 12.5 11.4415 11.7118 11.4415 10.7396V5.26039C11.4415 4.28815 10.6356 3.5 9.64163 3.5Z" fill="#B2B2B2"/>
<path d="M5.46564 6.08426C5.44074 6.08324 5.41536 6.08777 5.39113 6.09754C5.3669 6.10732 5.34435 6.12213 5.32492 6.14104C5.30549 6.15994 5.2896 6.18253 5.27827 6.20736C5.26693 6.23219 5.26041 6.25871 5.2591 6.28523C5.2578 6.31176 5.26174 6.3377 5.27068 6.36142C5.27963 6.38513 5.29337 6.40609 5.31104 6.42297C5.32871 6.43984 5.34992 6.45225 5.37332 6.45942C5.39671 6.46658 5.42178 6.46833 5.44692 6.46457L7.28602 6.36483L4.09042 9.7382C4.05758 9.77636 4.03861 9.82491 4.03742 9.87385C4.03624 9.92279 4.05294 9.96839 4.08407 10.0013C4.1152 10.0341 4.1584 10.0517 4.20476 10.0505C4.25112 10.0492 4.29712 10.0292 4.33326 9.99455L7.52886 6.62118L7.43184 8.5631C7.43047 8.61311 7.44745 8.65975 7.47925 8.69332C7.51106 8.7269 7.55524 8.74482 7.60261 8.74338C7.62628 8.74212 7.64996 8.73594 7.6723 8.7252C7.69464 8.71446 7.7152 8.69936 7.7328 8.68078C7.75041 8.6622 7.76471 8.64049 7.77488 8.61691C7.78506 8.59332 7.79091 8.56832 7.7921 8.54334L7.91041 6.1398C7.9121 6.11468 7.90898 6.08997 7.90123 6.06718C7.89349 6.04438 7.88128 6.02395 7.86533 6.00712C7.84939 5.99029 7.83004 5.9774 7.80844 5.96922C7.78684 5.96104 7.76344 5.95775 7.73964 5.95953L5.46564 6.08426Z" fill="white" stroke="white" stroke-width="0.8" stroke-linecap="round" stroke-linejoin="round"/>
<path d="M14.4577 4.11125L12.3174 5.31566V10.6849L14.4592 11.8893C15.0306 12.2105 15.5001 11.9465 15.5001 11.3025V4.70099C15.4986 4.05404 15.0306 3.78998 14.4577 4.11125Z" fill="#B2B2B2"/>
</svg>
