<svg width="15" height="9" viewBox="0 0 15 9" fill="none" xmlns="http://www.w3.org/2000/svg">
<path fill-rule="evenodd" clip-rule="evenodd" d="M1.8 0H9.142C10.136 0 10.942 0.787994 10.942 1.75999V7.24001C10.942 8.21201 10.136 9 9.142 9H1.8C0.806 9 0 8.21201 0 7.24001V1.75999C0 0.787994 0.806 0 1.8 0ZM7.685 3.27701L7.95 3.01201V3.013C8.009 2.953 8.085 2.92601 8.165 2.923C8.247 2.91901 8.323 2.959 8.381 3.01201C8.438 3.06401 8.471 3.153 8.471 3.229C8.471 3.30701 8.437 3.38901 8.381 3.44501L8.377 3.44901C8.28944 3.53906 8.1998 3.62773 8.11039 3.71617L8.057 3.76901L7.395 4.43201L6.631 5.19501L6.001 5.826L5.736 6.09001C5.62 6.207 5.421 6.207 5.304 6.09001L5.299 6.08501C5.20584 5.99434 5.11407 5.90161 5.02253 5.80911L5.02182 5.80838L4.967 5.75301L4.79658 5.5827C4.6261 5.41241 4.45549 5.24199 4.286 5.071L3.496 4.283L3.082 3.869V3.93301V4.539V5.179V5.479V5.48001C3.082 5.56201 3.048 5.636 2.993 5.696C2.937 5.75601 2.856 5.78201 2.777 5.78601C2.701 5.789 2.614 5.75 2.561 5.696C2.505 5.64 2.471 5.558 2.471 5.48001V3.12801C2.471 2.96201 2.612 2.82201 2.777 2.82201H5.127C5.211 2.82201 5.284 2.85701 5.344 2.912C5.404 2.968 5.429 3.05 5.434 3.12801C5.437 3.20401 5.397 3.29201 5.344 3.34401C5.288 3.40001 5.206 3.43401 5.127 3.43401H3.51376L4.025 3.946L4.814 4.73401L5.466 5.386L5.52066 5.44067L5.52175 5.43959L5.52398 5.43739C5.559 5.40269 5.59406 5.36795 5.629 5.33301L6.291 4.67101L7.055 3.90701L7.685 3.27701ZM11.818 1.81601L13.958 0.611008V0.610001C14.53 0.289001 14.999 0.553009 15 1.20001V7.80301C15 8.44701 14.531 8.71101 13.959 8.38901L11.818 7.18501V1.81601Z" fill="black"/>
</svg>
